<svg width="170" height="106" viewBox="0 0 170 106" fill="none" xmlns="http://www.w3.org/2000/svg">
<rect width="170" height="106" fill="#F5F5F5"/>
<rect width="360" height="640" transform="translate(-97 -94)" fill="white"/>
<g clip-path="url(#clip0_0_1)">
<path d="M16.0325 102.632C16.7848 103.647 17.7173 104.514 18.7835 105.19C19.0102 105.334 19.243 105.469 19.4798 105.595H25.0527C24.986 105.461 24.9211 105.326 24.8584 105.19C23.1305 101.542 22.5886 97.4448 23.309 93.4733C24.0294 89.5017 25.9758 85.8558 28.8746 83.0481C25.5062 84.089 22.3928 86.1181 20.3564 88.9957C19.3669 90.397 18.6632 91.9797 18.2855 93.6533C17.949 90.3062 18.4838 86.929 19.8381 83.85C17.1034 86.0755 14.9737 89.1232 14.162 92.5537C13.3503 95.9861 13.9393 99.7952 16.0325 102.632Z" fill="#F0F0F0"/>
<path d="M169.119 56.9016H131.23C130.997 56.9014 130.773 56.8084 130.608 56.6432C130.442 56.4779 130.349 56.2539 130.349 56.0202V32.5735C130.349 32.3398 130.442 32.1157 130.608 31.9505C130.773 31.7852 130.997 31.6923 131.23 31.692H169.119C169.352 31.6923 169.576 31.7852 169.742 31.9505C169.907 32.1157 170 32.3398 170 32.5735V56.0202C170 56.2539 169.907 56.4779 169.742 56.6432C169.576 56.8084 169.352 56.9014 169.119 56.9016Z" fill="white"/>
<path d="M169.119 56.9016H131.23C130.997 56.9014 130.773 56.8084 130.608 56.6432C130.442 56.4779 130.349 56.2539 130.349 56.0202V32.5735C130.349 32.3398 130.442 32.1157 130.608 31.9505C130.773 31.7852 130.997 31.6923 131.23 31.692H169.119C169.352 31.6923 169.576 31.7852 169.742 31.9505C169.907 32.1157 170 32.3398 170 32.5735V56.0202C170 56.2539 169.907 56.4779 169.742 56.6432C169.576 56.8084 169.352 56.9014 169.119 56.9016ZM131.23 32.0446C131.09 32.0448 130.956 32.1005 130.857 32.1997C130.758 32.2988 130.702 32.4333 130.702 32.5735V56.0202C130.702 56.1604 130.758 56.2948 130.857 56.394C130.956 56.4931 131.09 56.5489 131.23 56.549H169.119C169.259 56.5489 169.393 56.4931 169.493 56.394C169.592 56.2948 169.647 56.1604 169.648 56.0202V32.5735C169.647 32.4333 169.592 32.2988 169.493 32.1997C169.393 32.1005 169.259 32.0448 169.119 32.0446H131.23Z" fill="#3F3D56"/>
<path d="M161.629 39.5226H138.72C138.51 39.5226 138.308 39.439 138.159 39.2902C138.01 39.1414 137.927 38.9396 137.927 38.7292C137.927 38.5188 138.01 38.3171 138.159 38.1683C138.308 38.0195 138.51 37.9359 138.72 37.9359H161.629C161.84 37.9359 162.041 38.0195 162.19 38.1683C162.339 38.3171 162.422 38.5188 162.422 38.7292C162.422 38.9396 162.339 39.1414 162.19 39.2902C162.041 39.439 161.84 39.5226 161.629 39.5226Z" fill="#CCCCCC"/>
<path d="M161.629 44.9876H138.72C138.51 44.9876 138.308 44.904 138.159 44.7552C138.01 44.6064 137.927 44.4047 137.927 44.1943C137.927 43.9839 138.01 43.7821 138.159 43.6333C138.308 43.4845 138.51 43.4009 138.72 43.4009H161.629C161.84 43.4009 162.041 43.4845 162.19 43.6333C162.339 43.7821 162.422 43.9839 162.422 44.1943C162.422 44.4047 162.339 44.6064 162.19 44.7552C162.041 44.904 161.84 44.9876 161.629 44.9876Z" fill="#CCCCCC"/>
<path d="M159.588 53.6525C161.153 53.6525 162.422 52.3832 162.422 50.8174C162.422 49.2516 161.153 47.9823 159.588 47.9823C158.023 47.9823 156.754 49.2516 156.754 50.8174C156.754 52.3832 158.023 53.6525 159.588 53.6525Z" fill="#A55EEA"/>
<path d="M159.666 49.4818V49.2117H159.746V49.4819C159.859 49.4868 159.97 49.5139 160.073 49.5618C160.147 49.5968 160.212 49.6504 160.259 49.7173C160.304 49.7793 160.327 49.8536 160.327 49.9297C160.329 49.9853 160.31 50.0396 160.275 50.0825C160.259 50.102 160.24 50.1178 160.217 50.1286C160.195 50.1393 160.171 50.1449 160.146 50.1447C160.127 50.145 160.109 50.1416 160.092 50.1346C160.075 50.1275 160.059 50.1171 160.046 50.1038C160.033 50.0906 160.022 50.0748 160.015 50.0574C160.008 50.04 160.005 50.0213 160.005 50.0025C160.005 49.9762 160.011 49.9502 160.021 49.9261L160.053 49.8586C160.065 49.8304 160.07 49.8001 160.069 49.7697C160.07 49.7226 160.055 49.6766 160.027 49.6392C159.996 49.5998 159.954 49.5705 159.906 49.5547C159.854 49.5377 159.8 49.527 159.746 49.5227V50.4947L159.764 50.5054C159.931 50.5938 160.083 50.7084 160.213 50.8448C160.271 50.9133 160.317 50.9911 160.349 51.075C160.381 51.1562 160.398 51.2427 160.398 51.3299C160.399 51.4429 160.37 51.5542 160.313 51.6516C160.257 51.7467 160.175 51.8238 160.076 51.8737C159.973 51.9246 159.861 51.9571 159.746 51.9697V52.2593H159.666V51.975C159.55 51.9741 159.436 51.9505 159.329 51.9057C159.222 51.866 159.128 51.7985 159.056 51.7102C158.993 51.6311 158.959 51.5326 158.959 51.4312C158.957 51.3601 158.979 51.2902 159.021 51.2331C159.038 51.2084 159.061 51.1882 159.087 51.1741C159.113 51.1601 159.142 51.1526 159.172 51.1522C159.19 51.1516 159.208 51.1547 159.225 51.1612C159.241 51.1678 159.256 51.1777 159.269 51.1903C159.282 51.2029 159.292 51.218 159.298 51.2347C159.305 51.2513 159.308 51.2691 159.307 51.287C159.301 51.3417 159.278 51.3932 159.242 51.4342C159.222 51.4595 159.206 51.4869 159.193 51.5157C159.184 51.5382 159.179 51.5623 159.179 51.5866C159.18 51.6514 159.202 51.7142 159.242 51.7648C159.287 51.8214 159.345 51.8652 159.412 51.8915C159.488 51.9213 159.57 51.9358 159.652 51.9341H159.666V50.7737L159.565 50.7151C159.469 50.6594 159.396 50.6132 159.345 50.5765C159.296 50.5408 159.251 50.5003 159.21 50.4556C159.108 50.3469 159.051 50.2032 159.052 50.054C159.051 49.9612 159.074 49.8698 159.119 49.7884C159.163 49.7072 159.227 49.6389 159.306 49.5902C159.415 49.5244 159.539 49.4871 159.666 49.4818ZM159.666 49.5209C159.597 49.5231 159.53 49.5381 159.466 49.5653C159.403 49.5966 159.351 49.6468 159.318 49.709C159.28 49.7766 159.26 49.853 159.261 49.9306C159.26 50.0253 159.289 50.1177 159.344 50.1949C159.373 50.2369 159.408 50.2745 159.448 50.3067C159.512 50.3545 159.579 50.3984 159.648 50.4379L159.666 50.4486V49.5209ZM159.746 51.9306C159.792 51.9267 159.837 51.9172 159.88 51.9021C159.916 51.8885 159.949 51.8693 159.978 51.8453C160.033 51.7985 160.075 51.7391 160.102 51.6721C160.132 51.598 160.148 51.5185 160.148 51.4383C160.14 51.3096 160.1 51.185 160.029 51.0771C159.959 50.9691 159.861 50.8817 159.746 50.8235V51.9306Z" fill="white"/>
<path d="M143.309 41.2075H105.421C105.187 41.2072 104.963 41.1143 104.798 40.949C104.633 40.7838 104.54 40.5597 104.539 40.3261V16.8793C104.54 16.6457 104.633 16.4216 104.798 16.2564C104.963 16.0911 105.187 15.9982 105.421 15.9979H143.309C143.543 15.9982 143.767 16.0911 143.932 16.2564C144.097 16.4216 144.19 16.6457 144.19 16.8793V40.3261C144.19 40.5597 144.097 40.7838 143.932 40.949C143.767 41.1143 143.543 41.2072 143.309 41.2075Z" fill="white"/>
<path d="M143.309 41.2075H105.421C105.187 41.2072 104.963 41.1143 104.798 40.949C104.633 40.7838 104.54 40.5597 104.539 40.3261V16.8793C104.54 16.6457 104.633 16.4216 104.798 16.2564C104.963 16.0911 105.187 15.9982 105.421 15.9979H143.309C143.543 15.9982 143.767 16.0911 143.932 16.2564C144.097 16.4216 144.19 16.6457 144.19 16.8793V40.3261C144.19 40.5597 144.097 40.7838 143.932 40.949C143.767 41.1143 143.543 41.2072 143.309 41.2075ZM105.421 16.3505C105.28 16.3506 105.146 16.4064 105.047 16.5055C104.948 16.6047 104.892 16.7391 104.892 16.8793V40.3261C104.892 40.4663 104.948 40.6007 105.047 40.6999C105.146 40.799 105.28 40.8548 105.421 40.8549H143.309C143.449 40.8548 143.584 40.799 143.683 40.6999C143.782 40.6007 143.838 40.4663 143.838 40.3261V16.8793C143.838 16.7391 143.782 16.6047 143.683 16.5055C143.584 16.4064 143.449 16.3506 143.309 16.3505H105.421Z" fill="#3F3D56"/>
<path d="M135.819 23.8284H112.91C112.7 23.8284 112.498 23.7448 112.349 23.5961C112.201 23.4473 112.117 23.2455 112.117 23.0351C112.117 22.8247 112.201 22.6229 112.349 22.4741C112.498 22.3254 112.7 22.2418 112.91 22.2418H135.819C136.03 22.2418 136.232 22.3254 136.38 22.4741C136.529 22.6229 136.612 22.8247 136.612 23.0351C136.612 23.2455 136.529 23.4473 136.38 23.5961C136.232 23.7448 136.03 23.8284 135.819 23.8284Z" fill="#CCCCCC"/>
<path d="M135.819 29.2934H112.91C112.7 29.2934 112.498 29.2099 112.349 29.0611C112.201 28.9123 112.117 28.7105 112.117 28.5001C112.117 28.2897 112.201 28.088 112.349 27.9392C112.498 27.7904 112.7 27.7068 112.91 27.7068H135.819C136.03 27.7068 136.232 27.7904 136.38 27.9392C136.529 28.088 136.612 28.2897 136.612 28.5001C136.612 28.7105 136.529 28.9123 136.38 29.0611C136.232 29.2099 136.03 29.2934 135.819 29.2934Z" fill="#CCCCCC"/>
<path d="M133.778 37.9583C135.344 37.9583 136.612 36.689 136.612 35.1233C136.612 33.5575 135.344 32.2882 133.778 32.2882C132.213 32.2882 130.944 33.5575 130.944 35.1233C130.944 36.689 132.213 37.9583 133.778 37.9583Z" fill="#A55EEA"/>
<path d="M133.856 33.7877V33.5176H133.936V33.7877C134.049 33.7926 134.16 33.8198 134.263 33.8677C134.338 33.9027 134.402 33.9562 134.45 34.0232C134.494 34.0852 134.517 34.1594 134.517 34.2355C134.519 34.2911 134.5 34.3455 134.465 34.3884C134.449 34.4079 134.43 34.4236 134.408 34.4344C134.385 34.4452 134.361 34.4507 134.336 34.4505C134.317 34.4509 134.299 34.4475 134.282 34.4404C134.265 34.4334 134.249 34.4229 134.236 34.4097C134.223 34.3965 134.213 34.3807 134.206 34.3633C134.198 34.3458 134.195 34.3272 134.196 34.3084C134.196 34.2821 134.201 34.2561 134.212 34.232L134.244 34.1645C134.255 34.1362 134.26 34.106 134.26 34.0756C134.26 34.0285 134.245 33.9825 134.217 33.945C134.186 33.9057 134.144 33.8764 134.096 33.8606C134.044 33.8436 133.991 33.8328 133.936 33.8286V34.8006L133.954 34.8113C134.121 34.8997 134.273 35.0143 134.403 35.1507C134.461 35.2192 134.507 35.297 134.539 35.3808C134.571 35.4621 134.588 35.5485 134.588 35.6358C134.59 35.7488 134.56 35.86 134.503 35.9574C134.447 36.0525 134.365 36.1296 134.267 36.1796C134.163 36.2304 134.051 36.2629 133.936 36.2755V36.5652H133.856V36.2809C133.74 36.2799 133.626 36.2564 133.519 36.2116C133.412 36.1719 133.318 36.1044 133.246 36.0161C133.183 35.9369 133.149 35.8384 133.149 35.7371C133.147 35.6659 133.169 35.5961 133.211 35.5389C133.228 35.5143 133.251 35.4941 133.277 35.48C133.303 35.4659 133.333 35.4584 133.362 35.4581C133.38 35.4575 133.398 35.4605 133.415 35.4671C133.431 35.4736 133.447 35.4835 133.459 35.4962C133.472 35.5088 133.482 35.5239 133.488 35.5405C133.495 35.5572 133.498 35.575 133.497 35.5929C133.491 35.6476 133.468 35.699 133.432 35.74C133.413 35.7654 133.396 35.7927 133.383 35.8216C133.374 35.8441 133.369 35.8682 133.37 35.8925C133.37 35.9573 133.392 36.0201 133.433 36.0707C133.477 36.1273 133.535 36.1711 133.602 36.1974C133.679 36.2272 133.76 36.2417 133.842 36.24H133.856V35.0796L133.755 35.021C133.659 34.9653 133.586 34.9191 133.536 34.8823C133.486 34.8467 133.441 34.8062 133.4 34.7615C133.298 34.6528 133.241 34.5091 133.242 34.3599C133.241 34.2671 133.264 34.1756 133.309 34.0943C133.353 34.0131 133.417 33.9448 133.496 33.8961C133.605 33.8303 133.729 33.793 133.856 33.7877ZM133.856 33.8268C133.787 33.8289 133.72 33.844 133.656 33.8712C133.593 33.9025 133.541 33.9527 133.508 34.0148C133.47 34.0824 133.45 34.1589 133.451 34.2365C133.451 34.3311 133.48 34.4236 133.534 34.5008C133.563 34.5428 133.598 34.5804 133.638 34.6125C133.702 34.6604 133.769 34.7042 133.839 34.7438L133.856 34.7544V33.8268ZM133.936 36.2364C133.982 36.2326 134.027 36.2231 134.071 36.208C134.106 36.1944 134.139 36.1752 134.168 36.1511C134.223 36.1044 134.265 36.0449 134.292 35.9779C134.323 35.9039 134.338 35.8244 134.338 35.7442C134.331 35.6155 134.29 35.4909 134.219 35.3829C134.149 35.275 134.051 35.1876 133.936 35.1294V36.2364Z" fill="white"/>
<path d="M64.7665 37.7089C64.4364 37.6851 64.1051 37.7339 63.7959 37.852C63.4868 37.97 63.2072 38.1545 62.977 38.3923C62.7468 38.6302 62.5715 38.9156 62.4635 39.2286C62.3555 39.5415 62.3174 39.8743 62.3519 40.2036L55.068 43.6197L58.6331 45.8035L65.0035 42.2247C65.5526 42.1301 66.0479 41.8373 66.3956 41.4017C66.7433 40.9662 66.9192 40.4182 66.89 39.8615C66.8608 39.3049 66.6285 38.7783 66.2371 38.3816C65.8458 37.9848 65.3225 37.7455 64.7665 37.7089Z" fill="#FFB6B6"/>
<path d="M34.6254 103.433L37.141 103.433L38.3378 93.7268L34.625 93.727L34.6254 103.433Z" fill="#FFB6B6"/>
<path d="M33.9838 102.612L38.9379 102.612H38.9381C39.7754 102.612 40.5783 102.944 41.1704 103.537C41.7625 104.129 42.0951 104.932 42.0952 105.77V105.872L33.984 105.873L33.9838 102.612Z" fill="#2F2E41"/>
<path d="M47.4615 103.433L49.9771 103.433L51.1739 93.7268L47.4611 93.727L47.4615 103.433Z" fill="#FFB6B6"/>
<path d="M46.8199 102.612L51.7739 102.612H51.7741C52.6114 102.612 53.4144 102.944 54.0065 103.537C54.5985 104.129 54.9312 104.932 54.9312 105.77V105.872L46.82 105.873L46.8199 102.612Z" fill="#2F2E41"/>
<path d="M49.1419 53.0885L50.4186 55.8383L52.7204 80.4301L50.9311 101.567H46.7463L41.8082 68.2502L39.4888 100.8L33.8422 100.572L32.7582 56.4418L49.1419 53.0885Z" fill="#2F2E41"/>
<path d="M28.7954 30.3948L34.0888 28.2404L41.5603 28.6596L48.2026 31.0811L50.4187 55.8383C44.6401 58.995 38.7865 59.8566 32.8311 57.5994L27.304 41.4744L28.7954 30.3948Z" fill="#E4E4E4"/>
<path d="M46.136 31.7356L48.485 31.0811C48.485 31.0811 50.2618 29.9254 50.8463 33.3608C51.4309 36.7962 54.4388 42.1398 54.4388 42.1398L59.588 39.3946L61.972 44.6027L53.8402 49.5304L45.2768 40.8988L46.136 31.7356Z" fill="#E4E4E4"/>
<path d="M33.2511 23.6536C32.9658 23.0061 32.8109 22.3087 32.795 21.6012C32.7792 20.8938 32.9028 20.1902 33.1588 19.5305C33.4148 18.8708 33.7981 18.2681 34.287 17.7566C34.7759 17.2452 35.3606 16.8351 36.0079 16.5497C36.6552 16.2643 37.3523 16.1093 38.0595 16.0935C38.7667 16.0776 39.4701 16.2013 40.1295 16.4573C40.7889 16.7134 41.3915 17.097 41.9027 17.586C42.414 18.075 42.8239 18.66 43.1092 19.3075L43.14 19.3788C43.7068 20.6909 43.7293 22.1745 43.2026 23.5032C42.9418 24.1612 42.5541 24.7613 42.0614 25.2693C41.5688 25.7773 40.981 26.1832 40.3316 26.464C39.0199 27.031 37.5369 27.0535 36.2087 26.5266C34.8804 25.9997 33.8158 24.9666 33.2491 23.6545L33.2511 23.6536Z" fill="#FFB6B6"/>
<path d="M40.5639 18.7219C41.684 18.9252 43.4172 19.6306 44.3792 18.8031C43.9041 18.2478 43.3065 17.8105 42.6336 17.5258C42.5011 17.4818 42.3784 17.4124 42.2723 17.3215C41.9443 16.99 42.1977 16.4187 42.0477 15.9704C41.9748 15.8066 41.8649 15.662 41.7266 15.5479C41.5883 15.4338 41.4254 15.3535 41.2508 15.3131C40.9169 15.2132 40.5671 15.197 40.2391 15.0758C39.463 14.784 38.9112 13.9489 38.1156 13.722C37.4224 13.5214 36.725 13.8331 36.1267 14.1969C35.5285 14.5607 34.9367 14.9923 34.2369 15.0613C33.7139 15.109 33.3828 15.9696 32.8578 15.9948C31.7575 16.0484 31.8186 15.3229 31.7373 16.4792C31.6903 17.1692 30.7047 18.5419 30.7208 19.2379C30.737 19.6939 30.6564 20.1456 30.6694 20.6031C30.699 21.4744 31.0483 22.3042 31.6507 22.9342C32.1516 23.4495 32.8031 23.7971 33.2248 24.3845C33.444 24.6963 33.5961 25.0603 33.8514 25.3424C34.1066 25.6246 34.539 25.7944 34.8239 25.5929C35.1088 25.3915 35.1141 24.9556 35.2554 24.6238C35.3421 24.4205 35.4902 24.2493 35.679 24.1343C35.8678 24.0194 36.0878 23.9664 36.3082 23.9827C36.5371 24.0126 36.7532 24.1059 36.932 24.2519C37.1109 24.398 37.2454 24.5911 37.3205 24.8094C37.1871 24.0764 36.8355 23.3895 36.7018 22.6558C36.5682 21.9222 36.7423 21.0458 37.3738 20.7594C37.645 20.6331 38.0112 20.5992 38.1202 20.3084C38.1869 20.1332 38.1259 19.9262 38.1516 19.7368C38.2904 18.8083 39.8336 18.5786 40.5639 18.7219Z" fill="#2F2E41"/>
<path d="M33.4658 57.3132C33.4175 56.9857 33.298 56.6727 33.1158 56.3964C32.9335 56.12 32.6929 55.887 32.4109 55.7137C32.1289 55.5405 31.8123 55.4312 31.4835 55.3936C31.1547 55.3559 30.8217 55.3909 30.5078 55.4959L25.5951 49.1232L24.237 53.0783L29.1104 58.5236C29.3218 59.0394 29.7149 59.4596 30.2153 59.7047C30.7157 59.9499 31.2887 60.0029 31.8255 59.8536C32.3624 59.7044 32.8259 59.3634 33.1282 58.8952C33.4305 58.427 33.5506 57.8641 33.4658 57.3132Z" fill="#FFB6B6"/>
<path d="M30.4922 31.5968L28.7954 30.3948C28.7954 30.3948 24.9134 30.1724 24.3487 33.3608L17.2306 45.0748L26.0561 57.2549L30.335 52.749L24.936 46.4374L29.469 38.1113L30.4922 31.5968Z" fill="#E4E4E4"/>
<path d="M71.8331 33.4529H71.7441V31.0134C71.7441 30.8279 71.7076 30.6443 71.6367 30.473C71.5657 30.3017 71.4618 30.1461 71.3307 30.0149C71.1996 29.8838 71.044 29.7798 70.8728 29.7089C70.7015 29.6379 70.518 29.6014 70.3326 29.6014H65.166C64.9806 29.6014 64.7971 29.6379 64.6258 29.7089C64.4546 29.7798 64.299 29.8838 64.1679 30.0149C64.0369 30.1461 63.9329 30.3017 63.862 30.473C63.791 30.6443 63.7545 30.8279 63.7545 31.0134V44.3971C63.7545 44.5825 63.791 44.7662 63.862 44.9375C63.9329 45.1088 64.0369 45.2644 64.1679 45.3955C64.299 45.5267 64.4546 45.6307 64.6258 45.7016C64.7971 45.7726 64.9806 45.8091 65.166 45.8091H70.3326C70.518 45.8091 70.7015 45.7726 70.8728 45.7016C71.044 45.6307 71.1996 45.5267 71.3307 45.3955C71.4618 45.2644 71.5657 45.1088 71.6367 44.9375C71.7076 44.7662 71.7441 44.5826 71.7441 44.3971V35.1895H71.8331V33.4529Z" fill="#3F3D56"/>
<path d="M70.3896 29.9688H69.7152C69.7462 30.0448 69.758 30.1273 69.7497 30.2091C69.7413 30.2908 69.7129 30.3692 69.6671 30.4374C69.6213 30.5056 69.5595 30.5614 69.487 30.6001C69.4145 30.6387 69.3336 30.6589 69.2515 30.6589H66.2916C66.2095 30.6589 66.1286 30.6387 66.0561 30.6001C65.9837 30.5614 65.9218 30.5056 65.876 30.4374C65.8302 30.3692 65.8019 30.2908 65.7935 30.2091C65.7851 30.1273 65.7969 30.0448 65.8279 29.9688H65.198C64.9185 29.9688 64.6504 30.0798 64.4527 30.2776C64.255 30.4753 64.144 30.7435 64.144 31.0232V44.3873C64.144 44.667 64.255 44.9352 64.4527 45.1329C64.6504 45.3307 64.9185 45.4418 65.198 45.4418H70.3896C70.6692 45.4418 70.9373 45.3307 71.1349 45.1329C71.3326 44.9352 71.4437 44.667 71.4437 44.3873V31.0232C71.4437 30.7435 71.3326 30.4753 71.1349 30.2776C70.9373 30.0798 70.6692 29.9687 70.3896 29.9688Z" fill="#A55EEA"/>
<path d="M116.993 25.2096H79.1046C78.871 25.2093 78.6471 25.1164 78.4819 24.9511C78.3167 24.7859 78.2238 24.5619 78.2235 24.3282V0.881457C78.2238 0.647763 78.3167 0.423715 78.4819 0.258468C78.6471 0.0932206 78.871 0.000267447 79.1046 0H116.993C117.227 0.000267448 117.451 0.0932205 117.616 0.258468C117.781 0.423715 117.874 0.647763 117.874 0.881457V24.3282C117.874 24.5619 117.781 24.7859 117.616 24.9511C117.451 25.1164 117.227 25.2093 116.993 25.2096Z" fill="white"/>
<path d="M116.993 25.2096H79.1046C78.871 25.2093 78.6471 25.1164 78.4819 24.9511C78.3167 24.7859 78.2238 24.5619 78.2235 24.3282V0.881457C78.2238 0.647763 78.3167 0.423715 78.4819 0.258468C78.6471 0.0932206 78.871 0.000267447 79.1046 0H116.993C117.227 0.000267448 117.451 0.0932205 117.616 0.258468C117.781 0.423715 117.874 0.647763 117.874 0.881457V24.3282C117.874 24.5619 117.781 24.7859 117.616 24.9511C117.451 25.1164 117.227 25.2093 116.993 25.2096ZM79.1046 0.352582C78.9645 0.352735 78.8301 0.408506 78.731 0.507656C78.6319 0.606806 78.5761 0.741238 78.576 0.881457V24.3282C78.5761 24.4684 78.6319 24.6028 78.731 24.702C78.8301 24.8011 78.9645 24.8569 79.1046 24.857H116.993C117.133 24.8569 117.268 24.8011 117.367 24.702C117.466 24.6028 117.522 24.4684 117.522 24.3282V0.881457C117.522 0.741238 117.466 0.606806 117.367 0.507656C117.268 0.408506 117.133 0.352735 116.993 0.352582H79.1046Z" fill="#3F3D56"/>
<path d="M109.504 7.83054H86.5942C86.3839 7.83054 86.1822 7.74696 86.0335 7.59818C85.8848 7.44941 85.8012 7.24762 85.8012 7.03722C85.8012 6.82682 85.8848 6.62504 86.0335 6.47627C86.1822 6.32749 86.3839 6.24391 86.5942 6.24391H109.504C109.714 6.24391 109.916 6.32749 110.064 6.47627C110.213 6.62504 110.297 6.82682 110.297 7.03722C110.297 7.24762 110.213 7.44941 110.064 7.59818C109.916 7.74696 109.714 7.83054 109.504 7.83054Z" fill="#CCCCCC"/>
<path d="M109.504 13.2955H86.5942C86.3839 13.2955 86.1822 13.212 86.0335 13.0632C85.8848 12.9144 85.8012 12.7126 85.8012 12.5022C85.8012 12.2918 85.8848 12.0901 86.0335 11.9413C86.1822 11.7925 86.3839 11.7089 86.5942 11.7089H109.504C109.714 11.7089 109.916 11.7925 110.064 11.9413C110.213 12.0901 110.297 12.2918 110.297 12.5022C110.297 12.7126 110.213 12.9144 110.064 13.0632C109.916 13.212 109.714 13.2955 109.504 13.2955Z" fill="#CCCCCC"/>
<path d="M107.463 21.9605C109.028 21.9605 110.297 20.6912 110.297 19.1254C110.297 17.5596 109.028 16.2903 107.463 16.2903C105.897 16.2903 104.629 17.5596 104.629 19.1254C104.629 20.6912 105.897 21.9605 107.463 21.9605Z" fill="#A55EEA"/>
<path d="M107.54 17.7898V17.5197H107.62V17.7898C107.734 17.7947 107.845 17.8219 107.947 17.8698C108.022 17.9048 108.086 17.9583 108.134 18.0253C108.178 18.0873 108.202 18.1615 108.201 18.2376C108.203 18.2933 108.184 18.3476 108.149 18.3905C108.134 18.41 108.114 18.4257 108.092 18.4365C108.069 18.4473 108.045 18.4528 108.02 18.4527C108.002 18.453 107.983 18.4496 107.966 18.4425C107.949 18.4355 107.933 18.425 107.921 18.4118C107.907 18.3986 107.897 18.3828 107.89 18.3654C107.883 18.348 107.879 18.3293 107.88 18.3105C107.88 18.2842 107.885 18.2582 107.896 18.2341L107.928 18.1666C107.939 18.1383 107.944 18.1081 107.944 18.0777C107.945 18.0306 107.93 17.9846 107.901 17.9471C107.87 17.9078 107.828 17.8785 107.78 17.8627C107.728 17.8457 107.675 17.8349 107.62 17.8307V18.8027L107.638 18.8134C107.805 18.9018 107.957 19.0164 108.088 19.1528C108.145 19.2213 108.191 19.2991 108.223 19.3829C108.255 19.4642 108.272 19.5506 108.272 19.6379C108.274 19.7509 108.244 19.8621 108.187 19.9595C108.131 20.0546 108.049 20.1317 107.951 20.1817C107.847 20.2326 107.735 20.265 107.62 20.2776V20.5673H107.54V20.283C107.425 20.282 107.31 20.2585 107.203 20.2137C107.096 20.174 107.002 20.1065 106.93 20.0182C106.867 19.939 106.833 19.8405 106.833 19.7392C106.831 19.668 106.853 19.5982 106.896 19.541C106.912 19.5164 106.935 19.4962 106.961 19.4821C106.988 19.468 107.017 19.4605 107.047 19.4602C107.065 19.4596 107.082 19.4626 107.099 19.4692C107.116 19.4757 107.131 19.4856 107.143 19.4983C107.156 19.5109 107.166 19.526 107.173 19.5426C107.179 19.5593 107.182 19.5771 107.182 19.595C107.176 19.6497 107.153 19.7011 107.116 19.7421C107.097 19.7675 107.08 19.7948 107.067 19.8237C107.058 19.8462 107.053 19.8703 107.054 19.8946C107.054 19.9594 107.076 20.0222 107.117 20.0728C107.161 20.1294 107.22 20.1732 107.286 20.1995C107.363 20.2293 107.444 20.2438 107.526 20.2421H107.54V19.0817L107.439 19.0231C107.343 18.9674 107.27 18.9212 107.22 18.8845C107.171 18.8488 107.125 18.8083 107.084 18.7636C106.982 18.6549 106.925 18.5112 106.926 18.362C106.925 18.2692 106.949 18.1777 106.993 18.0964C107.037 18.0152 107.101 17.9469 107.18 17.8982C107.289 17.8324 107.413 17.7951 107.54 17.7898ZM107.54 17.8289C107.472 17.8311 107.404 17.8461 107.341 17.8733C107.277 17.9046 107.225 17.9548 107.192 18.0169C107.154 18.0845 107.134 18.161 107.135 18.2386C107.135 18.3332 107.164 18.4257 107.219 18.5029C107.248 18.5449 107.282 18.5825 107.322 18.6146C107.386 18.6625 107.453 18.7063 107.523 18.7459L107.54 18.7565V17.8289ZM107.62 20.2385C107.666 20.2347 107.711 20.2252 107.755 20.2101C107.79 20.1965 107.823 20.1773 107.852 20.1532C107.907 20.1065 107.949 20.047 107.976 19.98C108.007 19.906 108.022 19.8265 108.022 19.7463C108.015 19.6176 107.974 19.493 107.904 19.385C107.833 19.2771 107.735 19.1897 107.62 19.1315V20.2385Z" fill="white"/>
<path d="M77.3282 106H0.20243C0.148742 106 0.0972532 105.979 0.0592902 105.941C0.0213272 105.903 0 105.851 0 105.797C0 105.744 0.0213272 105.692 0.0592902 105.654C0.0972532 105.616 0.148742 105.595 0.20243 105.595H77.3282C77.3819 105.595 77.4334 105.616 77.4714 105.654C77.5093 105.692 77.5306 105.744 77.5306 105.797C77.5306 105.851 77.5093 105.903 77.4714 105.941C77.4334 105.979 77.3819 106 77.3282 106Z" fill="#CACACA"/>
</g>
<defs>
<clipPath id="clip0_0_1">
<rect width="170" height="106" fill="white"/>
</clipPath>
</defs>
</svg>
